<svg xmlns="http://www.w3.org/2000/svg" viewBox="0 0 680 676" width="680" height="676">
<rect width="680" height="676" fill="#15191B"/>
<text x="20" y="36" font-family="-apple-system,sans-serif" font-size="15" font-weight="700" letter-spacing="0.02em" fill="#F2EFE9">PACE TREND</text>
<text x="660" y="35" font-family="'JetBrains Mono','SF Mono',Menlo,Consolas,monospace" font-size="12" fill="#9AA3A5" text-anchor="end">2266642 · route 14A</text>
<text x="20" y="54" font-family="'JetBrains Mono','SF Mono',Menlo,Consolas,monospace" font-size="11" fill="#9AA3A5">2 days tracked · 2026-06-29 → 2026-07-13</text>
<rect x="20" y="70" width="640" height="130" rx="10" fill="#1F2426"/>
<text x="34" y="90" font-family="'JetBrains Mono','SF Mono',Menlo,Consolas,monospace" font-size="11" letter-spacing="0.08em" fill="#9AA3A5">STOPS / MILE</text>
<rect x="60.0" y="101.16666666666667" width="560.0" height="71.66666666666664" fill="#4FA876" fill-opacity="0.15"/>
<line x1="60.0" y1="137.00000000000003" x2="620" y2="137.00000000000003" stroke="#4FA876" stroke-dasharray="2,3"/>
<polyline points="60.0,163.9 620.0,110.1" fill="none" stroke="#4FA876" stroke-width="2"/>
<circle cx="60.0" cy="163.9" r="3" fill="#4FA876"/>
<circle cx="620.0" cy="110.1" r="3" fill="#4FA876"/>
<text x="64.0" y="155.9" font-family="'JetBrains Mono','SF Mono',Menlo,Consolas,monospace" font-size="10" fill="#F2EFE9" text-anchor="start">1.00</text>
<text x="616.0" y="102.1" font-family="'JetBrains Mono','SF Mono',Menlo,Consolas,monospace" font-size="10" fill="#F2EFE9" text-anchor="end">1.12</text>
<rect x="20" y="222" width="640" height="130" rx="10" fill="#1F2426"/>
<text x="34" y="242" font-family="'JetBrains Mono','SF Mono',Menlo,Consolas,monospace" font-size="11" letter-spacing="0.08em" fill="#9AA3A5">PIECES / MILE</text>
<rect x="60.0" y="253.16666666666669" width="560.0" height="71.66666666666663" fill="#4FA876" fill-opacity="0.15"/>
<line x1="60.0" y1="289.0" x2="620" y2="289.0" stroke="#4FA876" stroke-dasharray="2,3"/>
<polyline points="60.0,314.2 620.0,263.1" fill="none" stroke="#4FA876" stroke-width="2"/>
<circle cx="60.0" cy="314.2" r="3" fill="#4FA876"/>
<circle cx="620.0" cy="263.1" r="3" fill="#4FA876"/>
<text x="64.0" y="306.2" font-family="'JetBrains Mono','SF Mono',Menlo,Consolas,monospace" font-size="10" fill="#F2EFE9" text-anchor="start">1.70</text>
<text x="616.0" y="255.1" font-family="'JetBrains Mono','SF Mono',Menlo,Consolas,monospace" font-size="10" fill="#F2EFE9" text-anchor="end">2.47</text>
<rect x="20" y="374" width="640" height="130" rx="10" fill="#1F2426"/>
<text x="34" y="394" font-family="'JetBrains Mono','SF Mono',Menlo,Consolas,monospace" font-size="11" letter-spacing="0.08em" fill="#9AA3A5">STOPS / ACTIVE HR</text>
<rect x="60.0" y="405.16666666666663" width="560.0" height="71.66666666666669" fill="#4FA876" fill-opacity="0.15"/>
<line x1="60.0" y1="441.0" x2="620" y2="441.0" stroke="#4FA876" stroke-dasharray="2,3"/>
<polyline points="60.0,415.8 620.0,466.4" fill="none" stroke="#4FA876" stroke-width="2"/>
<circle cx="60.0" cy="415.8" r="3" fill="#4FA876"/>
<circle cx="620.0" cy="466.4" r="3" fill="#4FA876"/>
<text x="64.0" y="407.8" font-family="'JetBrains Mono','SF Mono',Menlo,Consolas,monospace" font-size="10" fill="#F2EFE9" text-anchor="start">16.73</text>
<text x="616.0" y="458.4" font-family="'JetBrains Mono','SF Mono',Menlo,Consolas,monospace" font-size="10" fill="#F2EFE9" text-anchor="end">13.72</text>
<rect x="20" y="526" width="640" height="130" rx="10" fill="#1F2426"/>
<text x="34" y="546" font-family="'JetBrains Mono','SF Mono',Menlo,Consolas,monospace" font-size="11" letter-spacing="0.08em" fill="#9AA3A5">PIECES / ACTIVE HR</text>
<rect x="60.0" y="557.1666666666666" width="560.0" height="71.66666666666674" fill="#4FA876" fill-opacity="0.15"/>
<line x1="60.0" y1="593.0" x2="620" y2="593.0" stroke="#4FA876" stroke-dasharray="2,3"/>
<polyline points="60.0,618.5 620.0,567.8" fill="none" stroke="#4FA876" stroke-width="2"/>
<circle cx="60.0" cy="618.5" r="3" fill="#4FA876"/>
<circle cx="620.0" cy="567.8" r="3" fill="#4FA876"/>
<text x="64.0" y="610.5" font-family="'JetBrains Mono','SF Mono',Menlo,Consolas,monospace" font-size="10" fill="#F2EFE9" text-anchor="start">28.36</text>
<text x="616.0" y="559.8" font-family="'JetBrains Mono','SF Mono',Menlo,Consolas,monospace" font-size="10" fill="#F2EFE9" text-anchor="end">30.17</text>
</svg>