<svg xmlns="http://www.w3.org/2000/svg" viewBox="0 0 680 676" width="680" height="676">
<rect width="680" height="676" fill="#15191B"/>
<text x="20" y="36" font-family="-apple-system,sans-serif" font-size="15" font-weight="700" letter-spacing="0.02em" fill="#F2EFE9">PACE TREND</text>
<text x="660" y="35" font-family="'JetBrains Mono','SF Mono',Menlo,Consolas,monospace" font-size="12" fill="#9AA3A5" text-anchor="end">2266642 · route 19E</text>
<text x="20" y="54" font-family="'JetBrains Mono','SF Mono',Menlo,Consolas,monospace" font-size="11" fill="#9AA3A5">3 days tracked · 2026-08-18 → 2026-08-20</text>
<rect x="20" y="70" width="640" height="130" rx="10" fill="#1F2426"/>
<text x="34" y="90" font-family="'JetBrains Mono','SF Mono',Menlo,Consolas,monospace" font-size="11" letter-spacing="0.08em" fill="#9AA3A5">STOPS / MILE</text>
<rect x="60.0" y="102.5718954248366" width="560.0" height="70.26143790849675" fill="#4FA876" fill-opacity="0.15"/>
<line x1="60.0" y1="137.70261437908496" x2="620" y2="137.70261437908496" stroke="#4FA876" stroke-dasharray="2,3"/>
<polyline points="60.0,141.9 340.0,101.2 620.0,170.0" fill="none" stroke="#4FA876" stroke-width="2"/>
<circle cx="60.0" cy="141.9" r="3" fill="#4FA876"/>
<circle cx="340.0" cy="101.2" r="3" fill="#4FA876"/>
<circle cx="620.0" cy="170.0" r="3" fill="#4FA876"/>
<text x="64.0" y="133.9" font-family="'JetBrains Mono','SF Mono',Menlo,Consolas,monospace" font-size="10" fill="#F2EFE9" text-anchor="start">2.21</text>
<text x="616.0" y="162.0" font-family="'JetBrains Mono','SF Mono',Menlo,Consolas,monospace" font-size="10" fill="#F2EFE9" text-anchor="end">2.01</text>
<rect x="20" y="222" width="640" height="130" rx="10" fill="#1F2426"/>
<text x="34" y="242" font-family="'JetBrains Mono','SF Mono',Menlo,Consolas,monospace" font-size="11" letter-spacing="0.08em" fill="#9AA3A5">PIECES / MILE</text>
<rect x="60.0" y="253.16666666666663" width="560.0" height="69.49494949494954" fill="#4FA876" fill-opacity="0.15"/>
<line x1="60.0" y1="287.9141414141414" x2="620" y2="287.9141414141414" stroke="#4FA876" stroke-dasharray="2,3"/>
<polyline points="60.0,283.6 340.0,255.3 620.0,324.8" fill="none" stroke="#4FA876" stroke-width="2"/>
<circle cx="60.0" cy="283.6" r="3" fill="#4FA876"/>
<circle cx="340.0" cy="255.3" r="3" fill="#4FA876"/>
<circle cx="620.0" cy="324.8" r="3" fill="#4FA876"/>
<text x="64.0" y="275.6" font-family="'JetBrains Mono','SF Mono',Menlo,Consolas,monospace" font-size="10" fill="#F2EFE9" text-anchor="start">3.26</text>
<text x="616.0" y="316.8" font-family="'JetBrains Mono','SF Mono',Menlo,Consolas,monospace" font-size="10" fill="#F2EFE9" text-anchor="end">3.07</text>
<rect x="20" y="374" width="640" height="130" rx="10" fill="#1F2426"/>
<text x="34" y="394" font-family="'JetBrains Mono','SF Mono',Menlo,Consolas,monospace" font-size="11" letter-spacing="0.08em" fill="#9AA3A5">STOPS / ACTIVE HR</text>
<rect x="60.0" y="410.30503144654085" width="560.0" height="66.52830188679246" fill="#4FA876" fill-opacity="0.15"/>
<line x1="60.0" y1="443.56918238993705" x2="620" y2="443.56918238993705" stroke="#4FA876" stroke-dasharray="2,3"/>
<polyline points="60.0,465.5 340.0,405.2 620.0,460.1" fill="none" stroke="#4FA876" stroke-width="2"/>
<circle cx="60.0" cy="465.5" r="3" fill="#4FA876"/>
<circle cx="340.0" cy="405.2" r="3" fill="#4FA876"/>
<circle cx="620.0" cy="460.1" r="3" fill="#4FA876"/>
<text x="64.0" y="457.5" font-family="'JetBrains Mono','SF Mono',Menlo,Consolas,monospace" font-size="10" fill="#F2EFE9" text-anchor="start">17.10</text>
<text x="616.0" y="452.1" font-family="'JetBrains Mono','SF Mono',Menlo,Consolas,monospace" font-size="10" fill="#F2EFE9" text-anchor="end">17.30</text>
<rect x="20" y="526" width="640" height="130" rx="10" fill="#1F2426"/>
<text x="34" y="546" font-family="'JetBrains Mono','SF Mono',Menlo,Consolas,monospace" font-size="11" letter-spacing="0.08em" fill="#9AA3A5">PIECES / ACTIVE HR</text>
<rect x="60.0" y="557.1666666666667" width="560.0" height="66.4734299516906" fill="#4FA876" fill-opacity="0.15"/>
<line x1="60.0" y1="590.403381642512" x2="620" y2="590.403381642512" stroke="#4FA876" stroke-dasharray="2,3"/>
<polyline points="60.0,628.8 340.0,574.8 620.0,567.6" fill="none" stroke="#4FA876" stroke-width="2"/>
<circle cx="60.0" cy="628.8" r="3" fill="#4FA876"/>
<circle cx="340.0" cy="574.8" r="3" fill="#4FA876"/>
<circle cx="620.0" cy="567.6" r="3" fill="#4FA876"/>
<text x="64.0" y="620.8" font-family="'JetBrains Mono','SF Mono',Menlo,Consolas,monospace" font-size="10" fill="#F2EFE9" text-anchor="start">25.20</text>
<text x="616.0" y="559.6" font-family="'JetBrains Mono','SF Mono',Menlo,Consolas,monospace" font-size="10" fill="#F2EFE9" text-anchor="end">26.38</text>
</svg>